<?xml version="1.0" standalone="no"?><!DOCTYPE svg PUBLIC "-//W3C//DTD SVG 1.1//EN" "http://www.w3.org/Graphics/SVG/1.1/DTD/svg11.dtd"><svg t="1729848431942" class="icon" viewBox="0 0 1024 1024" version="1.1" xmlns="http://www.w3.org/2000/svg" p-id="24638" xmlns:xlink="http://www.w3.org/1999/xlink" width="200" height="200"><path d="M526.165333 64.213333a73.557333 73.557333 0 0 0-51.797333-2.688l-7.168 2.688-361.6 158.336a71.68 71.68 0 0 0-42.837333 58.965334l-0.298667 6.485333v490.666667c0 26.112 14.421333 50.005333 37.248 62.549333l5.888 2.901333 361.6 158.336c16.426667 7.210667 34.901333 8.106667 51.797333 2.688l7.168-2.688 70.954667-31.104v-66.730666l-62.592 27.477333V493.653333l334.549333-141.354666v170.368h61.781334V288c0-23.936-12.074667-45.994667-31.701334-59.178667l-5.546666-3.370666-5.845334-2.901334-361.6-158.336z m290.261334 541.781334l-142.037334 140.074666 43.690667 43.093334 67.541333-66.474667v238.805333h61.781334l0.042666-238.72 67.328 66.389334 43.690667-43.093334-142.037333-140.074666z m-692.138667 179.626666V349.269333l348.458667 147.2V938.24l-348.458667-152.618667zM492.288 119.893333h8.789333l373.674667 163.626667-370.261333 156.501333h-8.533334L122.026667 282.026667l370.218666-162.133334z" p-id="24639" fill="#1296db"></path><path d="M295.936 402.517333h56.277333v224.426667l-56.277333-26.752z" p-id="24640" fill="#1296db"></path></svg>