<?xml version="1.0" standalone="no"?><!DOCTYPE svg PUBLIC "-//W3C//DTD SVG 1.1//EN" "http://www.w3.org/Graphics/SVG/1.1/DTD/svg11.dtd"><svg t="1729848118735" class="icon" viewBox="0 0 1024 1024" version="1.1" xmlns="http://www.w3.org/2000/svg" p-id="19374" xmlns:xlink="http://www.w3.org/1999/xlink" width="200" height="200"><path d="M538.76588 12.89253l346.765879 166.986024a61.686747 61.686747 0 0 1 33.37253 41.854458l85.64588 375.240482a61.686747 61.686747 0 0 1-11.905542 52.186988l-239.973784 300.907952a61.686747 61.686747 0 0 1-48.226698 23.22506H319.555855a61.686747 61.686747 0 0 1-48.226698-23.22506l-239.967615-300.907952a61.686747 61.686747 0 0 1-11.911711-52.186988l85.639711-375.240482a61.686747 61.686747 0 0 1 33.37253-41.848289L485.240289 12.886361a61.686747 61.686747 0 0 1 53.531759 0z" fill="#05C059" p-id="19375"></path><path d="M609.156627 740.703614a24.687036 24.687036 0 0 1 10.88771 33.156627l-16.698602 33.033253a24.680867 24.680867 0 0 1-33.150458 10.887711 24.674699 24.674699 0 0 1-10.887711-33.156627l16.692434-33.027084a24.680867 24.680867 0 0 1 33.156627-10.89388zM392.605301 277.590361L505.954699 491.180723a24.674699 24.674699 0 1 1-43.587856 23.13253L362.927807 326.939759H229.530217l191.475663 366.326747 24.631518-46.844916a24.687036 24.687036 0 0 1 33.317012-10.357204 24.662361 24.662361 0 0 1 10.363373 33.317012l-68.435277 130.171373L148.035855 277.590361h244.557109z m278.281253 340.985832a24.674699 24.674699 0 0 1 10.887711 33.156626l-30.861879 61.057542a24.687036 24.687036 0 0 1-33.156627 10.89388 24.674699 24.674699 0 0 1-10.887711-33.156627l30.86188-61.057542a24.674699 24.674699 0 0 1 33.156626-10.893879zM528.408675 542.010602a24.674699 24.674699 0 0 1 10.357205 33.323181l-17.22294 32.755663a24.674699 24.674699 0 1 1-43.680386-22.959807l17.22294-32.761832a24.687036 24.687036 0 0 1 33.323181-10.363373z m204.207807-45.561831a24.674699 24.674699 0 0 1 10.887711 33.156627l-30.86188 61.069879a24.680867 24.680867 0 1 1-44.044337-22.268916l30.868048-61.06371a24.674699 24.674699 0 0 1 33.150458-10.89388zM608.613783 389.465446a24.674699 24.674699 0 0 1 10.357205 33.317012L578.868434 499.051952a24.674699 24.674699 0 1 1-43.680386-22.959807l40.096386-76.275663a24.674699 24.674699 0 0 1 33.329349-10.351036z m185.732627-15.137928a24.680867 24.680867 0 0 1 10.88771 33.156627l-30.861879 61.069879a24.680867 24.680867 0 1 1-44.044337-22.268916l30.868048-61.06371a24.674699 24.674699 0 0 1 33.150458-10.89388z m76.553253-96.730988L836.102169 346.432771a24.680867 24.680867 0 0 1-33.150458 10.881542 24.674699 24.674699 0 0 1-12.028916-30.53494 24.674699 24.674699 0 0 1 2.843759-49.182843h77.139277z m-179.43441-0.012337a24.674699 24.674699 0 0 1 0 49.349397h-22.10853l-10.283181 19.567037a24.674699 24.674699 0 1 1-43.680385-22.953639l24.15653-45.956627h51.915566z" fill="#FFFFFF" p-id="19376"></path></svg>