<svg width="410" height="404" viewBox="0 0 410 404" fill="none" xmlns="http://www.w3.org/2000/svg">
<path d="M399.641 59.5248L215.643 388.545C211.844 395.338 202.084 395.378 198.228 388.618L10.5816 59.5565C6.38075 52.1898 12.6801 43.2667 21.028 44.7588L205.223 77.6826C206.398 77.8926 207.601 77.8906 208.776 77.6765L389.119 44.806C397.439 43.2896 403.768 52.1436 399.641 59.5248Z" fill="url(#paint0_linear_909_12)"/>
<path d="M292.965 1.57409L156.801 28.2549C154.563 28.6934 152.906 30.59 152.771 32.8661L144.395 174.33C144.198 177.662 147.258 180.248 150.51 179.498L188.42 170.749C191.967 169.931 195.172 173.055 194.443 176.622L183.18 231.775C182.422 235.487 185.907 238.661 189.532 237.56L212.947 230.446C216.577 229.344 220.065 232.527 219.297 236.242L201.398 322.875C200.278 328.294 207.486 331.249 210.492 326.603L212.5 323.5L323.454 102.072C325.312 98.3642 322.108 94.1367 318.036 94.9225L279.014 102.454C275.347 103.161 272.227 99.7457 273.262 96.158L298.731 7.86658C299.767 4.27283 296.636 0.854872 292.965 1.57409Z" fill="url(#paint1_linear_909_12)"/>
<defs>
<linearGradient id="paint0_linear_909_12" x1="6.00005" y1="33.0001" x2="235" y2="344" gradientUnits="userSpaceOnUse">
<stop stop-color="#41D1FF"/>
<stop offset="1" stop-color="#BD34FE"/>
</linearGradient>
<linearGradient id="paint1_linear_909_12" x1="194.651" y1="8.81787" x2="236.076" y2="292.989" gradientUnits="userSpaceOnUse">
<stop stop-color="#FFEA83"/>
<stop offset="0.0833333" stop-color="#FFDD35"/>
<stop offset="1" stop-color="#FFA800"/>
</linearGradient>
</defs>
</svg>
